{
  "accessors": [
    {
      "bufferView": 2,
      "componentType": 5126,
      "count": 374,
      "max": [
        30.157201766967773,
        30.000001907348633,
        70.00570678710938
      ],
      "min": [
        -30.0,
        -30.018434524536133,
        -0.002567291259765625
      ],
      "type": "VEC3"
    },
    {
      "bufferView": 2,
      "byteOffset": 4488,
      "componentType": 5126,
      "count": 374,
      "max": [
        1.0,
        1.0,
        1.0
      ],
      "min": [
        -1.0,
        -1.0,
        -1.0
      ],
      "type": "VEC3"
    },
    {
      "bufferView": 3,
      "componentType": 5126,
      "count": 374,
      "max": [
        1.0,
        0.9999979734420776,
        1.0,
        1.0
      ],
      "min": [
        -1.0,
        -1.0,
        -1.0,
        1.0
      ],
      "type": "VEC4"
    },
    {
      "bufferView": 1,
      "componentType": 5126,
      "count": 374,
      "max": [
        0.9964144825935364,
        0.9946789145469666
      ],
      "min": [
        0.006039539817720652,
        0.005222652107477188
      ],
      "type": "VEC2"
    },
    {
      "bufferView": 1,
      "byteOffset": 2992,
      "componentType": 5126,
      "count": 374,
      "max": [
        0.9964144825935364,
        0.9946789145469666
      ],
      "min": [
        0.006039539817720652,
        0.005222652107477188
      ],
      "type": "VEC2"
    },
    {
      "bufferView": 0,
      "componentType": 5125,
      "count": 654,
      "type": "SCALAR"
    }
  ],
  "asset": {
    "extras": {
      "author": "KloWorks (https://sketchfab.com/kloworks)",
      "license": "CC-BY-4.0 (http://creativecommons.org/licenses/by/4.0/)",
      "source": "https://sketchfab.com/3d-models/crate-box-e1a6856037c54d0d9019aedf61315569",
      "title": "Crate box"
    },
    "generator": "Sketchfab-12.66.0",
    "version": "2.0"
  },
  "bufferViews": [
    {
      "buffer": 0,
      "byteLength": 2616,
      "name": "floatBufferViews",
      "target": 34963
    },
    {
      "buffer": 0,
      "byteLength": 5984,
      "byteOffset": 2616,
      "byteStride": 8,
      "name": "floatBufferViews",
      "target": 34962
    },
    {
      "buffer": 0,
      "byteLength": 8976,
      "byteOffset": 8600,
      "byteStride": 12,
      "name": "floatBufferViews",
      "target": 34962
    },
    {
      "buffer": 0,
      "byteLength": 5984,
      "byteOffset": 17576,
      "byteStride": 16,
      "name": "floatBufferViews",
      "target": 34962
    }
  ],
  "buffers": [
    {
      "byteLength": 23560,
      "uri": "scene.bin"
    }
  ],
  "images": [
    {
      "uri": "textures/Material_51_baseColor.png"
    },
    {
      "uri": "textures/Material_51_normal.png"
    }
  ],
  "materials": [
    {
      "doubleSided": true,
      "name": "Material_51",
      "normalTexture": {
        "index": 1
      },
      "pbrMetallicRoughness": {
        "baseColorTexture": {
          "index": 0
        },
        "metallicFactor": 0.0,
        "roughnessFactor": 0.6
      }
    }
  ],
  "meshes": [
    {
      "name": "crate002_Material #51_0",
      "primitives": [
        {
          "attributes": {
            "NORMAL": 1,
            "POSITION": 0,
            "TANGENT": 2,
            "TEXCOORD_0": 3,
            "TEXCOORD_1": 4
          },
          "indices": 5,
          "material": 0,
          "mode": 4
        }
      ]
    }
  ],
  "nodes": [
    {
      "children": [
        1
      ],
      "matrix": [
        1.0,
        0.0,
        0.0,
        0.0,
        0.0,
        2.220446049250313e-16,
        -1.0,
        0.0,
        0.0,
        1.0,
        2.220446049250313e-16,
        0.0,
        0.0,
        0.0,
        0.0,
        1.0
      ],
      "name": "Sketchfab_model"
    },
    {
      "children": [
        2
      ],
      "matrix": [
        1.0,
        0.0,
        0.0,
        0.0,
        0.0,
        0.0,
        1.0,
        0.0,
        0.0,
        -1.0,
        0.0,
        0.0,
        0.0,
        0.0,
        0.0,
        1.0
      ],
      "name": "9d111f7aa7d344d78f66f155b759a9a0.fbx"
    },
    {
      "children": [
        3
      ],
      "name": "RootNode"
    },
    {
      "children": [
        4
      ],
      "matrix": [
        1.688184392278913e-07,
        -1.1102230246251565e-16,
        -0.9999999999999858,
        0.0,
        -0.9999999403953371,
        -8.742276958631558e-08,
        -1.688184290545059e-07,
        0.0,
        -7.51212612039045e-08,
        0.859287083148953,
        -1.27836040799645e-14,
        0.0,
        0.0,
        0.0,
        0.0,
        1.0
      ],
      "name": "crate002"
    },
    {
      "children": [
        5
      ],
      "matrix": [
        1.0,
        0.0,
        -0.0,
        0.0,
        0.0,
        1.0,
        0.0,
        0.0,
        0.0,
        0.0,
        1.0,
        0.0,
        -1.5147792100906372,
        -0.4420214295387268,
        0.008262336254119873,
        1.0
      ],
      "name": "Object_4"
    },
    {
      "mesh": 0,
      "name": "crate002_Material #51_0"
    }
  ],
  "samplers": [
    {
      "magFilter": 9729,
      "minFilter": 9987,
      "wrapS": 10497,
      "wrapT": 10497
    }
  ],
  "scene": 0,
  "scenes": [
    {
      "name": "Sketchfab_Scene",
      "nodes": [
        0
      ]
    }
  ],
  "textures": [
    {
      "sampler": 0,
      "source": 0
    },
    {
      "sampler": 0,
      "source": 1
    }
  ]
}
